<?xml version="1.0" encoding="UTF-8"?>
<svg id="Shipment-Remove--Streamline-Core" xmlns="http://www.w3.org/2000/svg" width=".2in" height=".2in" version="1.1" viewBox="0 0 14 14">
  <!-- Generator: Adobe Illustrator 30.0.0, SVG Export Plug-In . SVG Version: 2.1.1 Build 123)  -->
  <defs>
    <style>
      .st0 {
        fill: currentColor;
        fill-rule: evenodd;
      }
    </style>
  </defs>
  <g id="shipment-remove--shipping-parcel-shipment-remove-subtract">
    <path id="Subtract" class="st0" d="M6.4,0h-2.9c-.8,0-1.5.5-1.9,1.2l-1.6,3.1h0s6.4,0,6.4,0V0ZM0,12.9v-7.3h14v7.3c0,.3-.1.6-.3.8-.2.2-.5.3-.8.3H1.1c-.3,0-.6-.1-.8-.3-.2-.2-.3-.5-.3-.8ZM14,4.3h0s-6.4,0-6.4,0V0h2.9c.8,0,1.6.5,1.9,1.2,0,0,1.6,3.1,1.6,3.1ZM4.5,9c-.4,0-.8.3-.8.8s.3.8.8.8h5c.4,0,.8-.3.8-.8s-.3-.8-.8-.8h-5Z"/>
  </g>
</svg>