<?xml version="1.0" encoding="UTF-8"?>
<svg id="Cd-Playing--Streamline-Ultimate" xmlns="http://www.w3.org/2000/svg" width=".3in" height=".3in" version="1.1" viewBox="0 0 24 24">
  <!-- Generator: Adobe Illustrator 30.0.0, SVG Export Plug-In . SVG Version: 2.1.1 Build 123)  -->
  <defs>
    <style>
      .st0 {
        fill: currentColor;
        fill-rule: evenodd;
      }
    </style>
  </defs>
  <g id="Cd-Playing--Streamline-Ultimate.svg">
    <path class="st0" d="M12,0C5.4,0,0,5.4,0,12s5.4,12,12,12,12-5.4,12-12S18.6,0,12,0ZM2.2,12c-.1,0-.3-.1-.2-.3,0-2.5,1-4.8,2.8-6.6,0,0,.1-.1.2-.1,0,0,.1,0,.2,0l4.1,4.1c0,0,.2,0,.3,0,1.6-1.4,3.9-1.2,5.3.3.5.6.9,1.4.9,2.2,0,.1.1.2.3.2,0,0,0,0,0,0h5.8c.1,0,.3.1.2.3,0,2.5-1,4.8-2.8,6.6,0,0-.1,0-.2,0,0,0-.1,0-.2,0l-4.1-4.1c0,0-.2,0-.3,0-.7.6-1.6.9-2.5.9-2,0-3.6-1.5-3.7-3.5,0-.1-.1-.2-.3-.2,0,0,0,0,0,0H2.2Z"/>
    <path class="st0" d="M9.8,12c0,1.2,1,2.2,2.2,2.2s2.2-1,2.2-2.2h0c0-1.2-1-2.2-2.2-2.2s-2.2,1-2.2,2.2"/>
  </g>
</svg>