<svg width="79" height="79" viewBox="0 0 79 79" fill="none" xmlns="http://www.w3.org/2000/svg">
<g clip-path="url(#clip0_216_393)">
<path d="M78.9999 0H0V79H78.9999V0Z" fill="#D7FE63"/>
<path d="M74.3241 74.2825H4.67676V4.72461H74.3241V74.2825ZM7.63105 71.3343H71.3698V7.67279H7.63105V71.3343Z" fill="#14161D"/>
<mask id="mask0_216_393" style="mask-type:luminance" maskUnits="userSpaceOnUse" x="7" y="7" width="66" height="65">
<path d="M72.3757 7.54688H7.43701V71.459H72.3757V7.54688Z" fill="white"/>
</mask>
<g mask="url(#mask0_216_393)">
<path d="M63.7989 22.593C62.2615 22.9661 63.1615 20.9624 62.1559 20.3082C59.9015 18.842 53.6259 21.772 51.6625 23.2994C46.7981 27.0822 51.1693 27.9315 53.6225 31.1824C55.8655 34.1544 56.5848 36.2215 54.4475 39.5768C53.0942 41.7006 50.8955 42.5601 49.5967 44.5921C50.3524 47.8431 52.4124 50.4284 52.501 53.9367C52.7499 63.6782 45.9277 69.2616 38.959 74.5128C37.2399 75.8077 32.371 78.469 31.354 79.5213C29.8326 81.0975 28.3043 91.9411 29.7769 93.6692C30.995 95.0979 32.8448 94.1092 34.2549 94.1137C38.3511 94.1273 45.196 93.0591 45.7653 98.6324L38.5579 97.2875C39.2363 98.3852 40.9134 98.0461 41.9167 99.1029C42.4405 99.6551 43.4575 102.142 43.0598 102.682C42.1406 102.227 41.4304 101.398 40.468 100.999C37.3239 99.6926 26.0897 98.1482 22.548 98.1425C20.2186 98.1391 18.7665 99.3388 19.1676 101.784C16.6564 102.048 15.7179 98.3772 16.8848 96.5743C18.8744 93.5002 28.1997 96.8362 25.1296 88.858C24.8978 88.2547 23.0104 85.1818 22.5536 85.1807C11.908 92.3017 -0.102341 97.5653 -12.8421 99.527L-6.53246 94.3552C-6.46088 94.0196 -6.99152 94.0536 -7.19832 94.1386C-9.39131 95.031 -11.5161 96.4212 -13.9614 97.2909C-18.1599 98.7832 -22.5106 99.7719 -26.8148 100.882C-27.0148 99.95 -26.3648 99.8343 -25.7808 99.4431C-22.5356 97.2739 -18.4996 95.9257 -16.001 92.5557C-15.9305 92.2166 -16.4361 92.2665 -16.6657 92.3391C-19.912 93.3664 -23.748 95.8543 -27.1489 97.1775C-30.1906 98.3613 -33.4824 99.5848 -36.7378 99.9772C-31.878 95.5027 -27.0057 91.4592 -22.7799 86.2398C-10.5298 71.111 -5.64277 48.6164 14.6793 41.7358C17.1018 40.916 24.6625 39.8546 25.9102 38.9951C26.3806 38.6708 26.484 38.4735 26.3817 37.8975C26.217 37.6764 23.2672 37.6299 23.6797 36.0945C25.2125 36.1354 27.0078 36.1399 28.177 34.9686L26.3863 32.0431C29.6792 33.3629 32.3153 34.8359 30.895 29.7934L33.8277 32.4887C35.0401 33.0137 34.4208 30.2526 35.3946 30.2458L36.307 33.8415L38.1 32.4932L38.1068 35.6398L40.3566 34.7452L39.909 36.539L42.853 35.6512C44.1484 33.533 38.3318 30.0632 36.9728 28.4485C35.1503 26.2816 34.3765 24.608 35.1605 21.6791C36.999 14.8075 47.3038 15.7782 52.7522 15.3904C56.6484 15.1125 61.7002 12.796 64.0523 17.6196C65.1329 19.8364 64.6079 20.442 63.7966 22.593H63.7989Z" fill="#14161D"/>
</g>
</g>
<defs>
<clipPath id="clip0_216_393">
<rect width="79" height="79" fill="white"/>
</clipPath>
</defs>
</svg>
