<svg width="251" height="30" viewBox="0 0 251 30" fill="none" xmlns="http://www.w3.org/2000/svg">
<path d="M38.5289 19.7376C36.5549 19.7379 35.0707 18.4782 35.0704 16.8402L36.3724 16.84C36.3726 17.834 37.3247 18.5898 38.5427 18.5896C39.6907 18.5893 40.6146 17.9452 40.6144 16.9932C40.614 14.7532 35.2382 15.7902 35.2376 12.5002C35.2373 10.8202 36.6931 9.7419 38.4851 9.74156C40.3331 9.74121 41.7473 10.9309 41.7476 12.5129L40.4456 12.5132C40.4454 11.5892 39.5913 10.8894 38.4573 10.8896C37.4213 10.8898 36.5534 11.4779 36.5536 12.4019C36.554 14.6279 41.9298 13.5069 41.9304 16.8529C41.9307 18.6029 40.4189 19.7372 38.5289 19.7376ZM46.9317 19.736C44.7337 19.7364 43.0954 18.1267 43.095 15.9987C43.0946 13.8707 44.7323 12.2604 46.8883 12.26C49.0583 12.2596 50.6826 13.8693 50.683 15.9973C50.683 16.1653 50.669 16.3473 50.6551 16.5013L44.3831 16.5025C44.5933 17.7624 45.6015 18.6302 46.9455 18.63C47.9395 18.6298 48.8074 18.1536 49.2132 17.4395L50.5572 17.4393C49.9975 18.8114 48.6117 19.7357 46.9317 19.736ZM46.8885 13.366C45.6145 13.3662 44.6346 14.2064 44.3969 15.4245L49.4089 15.4235C49.1986 14.2336 48.1905 13.3657 46.8885 13.366ZM55.3616 19.7344C53.3176 19.7348 51.7913 18.1251 51.7909 15.9971C51.7905 13.8691 53.3162 12.2588 55.3602 12.2584C56.5502 12.2582 57.5303 12.818 58.1325 13.7139L58.1323 12.4259L59.3363 12.4256L59.3376 19.5656L58.1336 19.5659L58.1334 18.2779C57.5315 19.174 56.5516 19.7342 55.3616 19.7344ZM55.5854 18.5724C57.0414 18.5721 58.1332 17.4659 58.1329 15.9959C58.1327 14.5259 57.0405 13.4201 55.5845 13.4204C54.1145 13.4206 53.0227 14.5268 53.0229 15.9968C53.0232 17.4668 54.1154 18.5726 55.5854 18.5724ZM61.3858 19.5653L61.3844 12.4253L62.5884 12.425L62.5887 13.783C63.1345 12.8589 64.0304 12.3128 65.1504 12.3126L65.3744 12.3125L65.3746 13.5585L65.1506 13.5586C63.5546 13.5589 62.5888 14.511 62.5891 15.981L62.5898 19.565L61.3858 19.5653ZM69.6127 19.7317C67.4427 19.7321 65.8044 18.1224 65.804 15.9944C65.8036 13.8664 67.4413 12.2561 69.6113 12.2557C71.4173 12.2554 72.8595 13.3891 73.1818 15.0131L71.9078 15.0133C71.6136 14.0613 70.7175 13.4175 69.6115 13.4177C68.1415 13.418 67.0497 14.5242 67.05 15.9942C67.0502 17.4642 68.1424 18.57 69.6124 18.5697C70.7184 18.5695 71.6143 17.9253 71.9081 16.9733L73.1821 16.9731C72.8604 18.5971 71.4187 19.7314 69.6127 19.7317ZM74.7849 19.5628L74.783 9.48275L75.987 9.48252L75.9877 13.5425C76.5476 12.7164 77.4435 12.2543 78.5635 12.254C80.2995 12.2537 81.4617 13.4015 81.462 15.1515L81.4629 19.5615L80.2589 19.5617L80.2581 15.5297C80.2579 14.2557 79.4457 13.4159 78.1717 13.4161C76.8557 13.4164 75.9879 14.2705 75.9881 15.5585L75.9889 19.5625L74.7849 19.5628Z" fill="white"/>
<path fill-rule="evenodd" clip-rule="evenodd" d="M19.1873 9.18517C16.5747 9.18517 14.4567 11.3031 14.4567 13.9158C14.4567 16.5284 16.5747 18.6464 19.1873 18.6464C21.7999 18.6464 23.9179 16.5284 23.9179 13.9158C23.9179 11.3031 21.7999 9.18517 19.1873 9.18517ZM12.4648 13.9158C12.4648 10.2031 15.4746 7.19336 19.1873 7.19336C22.9 7.19336 25.9097 10.2031 25.9097 13.9158C25.9097 15.1413 25.5817 16.2902 25.0088 17.2796C25.5618 17.7382 26.1122 18.1987 26.6562 18.7069C27.3216 19.3284 27.4213 20.3023 26.769 20.9844C26.6912 21.0657 26.6066 21.1523 26.5145 21.2444C26.4223 21.3366 26.3357 21.4212 26.2544 21.4989C25.5723 22.1513 24.5984 22.0516 23.9769 21.3862C23.4686 20.842 23.008 20.2916 22.5492 19.7384C21.5603 20.3107 20.412 20.6382 19.1873 20.6382C15.4746 20.6382 12.4648 17.6285 12.4648 13.9158Z" fill="white"/>
<rect x="1" y="1" width="248.962" height="27.1308" rx="13.5654" stroke="white" stroke-width="2"/>
</svg>
