<svg width="35" height="35" viewBox="0 0 35 35" fill="none" xmlns="http://www.w3.org/2000/svg">
<path fill-rule="evenodd" clip-rule="evenodd" d="M15.8064 4.68333C9.66335 4.68333 4.68341 9.66327 4.68341 15.8063C4.68341 21.9494 9.66335 26.9293 15.8064 26.9293C21.9495 26.9293 26.9294 21.9494 26.9294 15.8063C26.9294 9.66327 21.9495 4.68333 15.8064 4.68333ZM0 15.8063C0 7.07677 7.07673 0 15.8064 0C24.536 0 31.6128 7.07677 31.6128 15.8063C31.6128 18.6879 30.8416 21.3892 29.4946 23.7156C30.7948 24.7941 32.0888 25.8768 33.3681 27.0717C34.9326 28.533 35.1671 30.8228 33.6332 32.4268C33.4504 32.6178 33.2514 32.8215 33.0347 33.0382C32.818 33.2548 32.6144 33.4538 32.4233 33.6365C30.8194 35.1705 28.5296 34.936 27.0683 33.3715C25.8731 32.092 24.79 30.7977 23.7113 29.4971C21.386 30.8426 18.6861 31.6127 15.8064 31.6127C7.07673 31.6127 0 24.536 0 15.8063Z" fill="#BDBDBD"/>
</svg>
