<?xml version="1.0" encoding="UTF-8"?><svg id="Layer_2" xmlns="http://www.w3.org/2000/svg" width="20.59in" height="9.26in" xmlns:xlink="http://www.w3.org/1999/xlink" viewBox="0 0 1482.35 666.52"><defs><clipPath id="clippath"><rect x="65.45" y="51.44" width="571.51" height="563.64" fill="none"/></clipPath><clipPath id="clippath-1"><rect x="1610.47" y="62.64" width="571.51" height="563.64" fill="none"/></clipPath></defs><rect width="1482.35" height="666.52" fill="#d7fe63"/><rect x="654.61" y="48.24" width="778.2" height="564.13" fill="#12151c"/><path d="M1441.17,620.88H41.18V39.72h1399.98v581.16ZM67.18,594.88h1347.98V65.72H67.18v529.16Z" fill="#14161d"/><rect x="628.61" y="48.24" width="26" height="564.13" fill="#15171e"/><path d="M686.18,125.37h90c66.01,0,106.74,35.7,106.74,90.56s-40.72,90.74-106.74,90.74h-15.62v76.05c0,2.23-2.42,5.39-6.13,5.39h-68.24c-2.42,0-5.21-2.6-5.21-5.39v-251.59c0-2.97,2.79-5.95,5.21-5.77h0ZM759.82,193.42v45h19.71c13.2,0,22.5-9.3,22.5-22.5s-9.3-22.5-22.5-22.5h-19.71Z" fill="#d7fe63"/><path d="M1023.49,393.88c-78.66,0-130.91-55.04-130.91-137.23s52.25-137.05,130.91-137.05c29.75,0,56.53,7.44,80.14,22.13,3.53,1.67,4.65,4.09,3.35,6.88l-25.1,52.81c-1.49,3.53-3.9,4.65-7.25,3.16-12.46-7.06-27.15-10.6-44.26-10.6-34.4,0-57.09,25.1-57.09,62.66s22.69,62.85,56.9,62.85c17.11,0,31.99-3.53,44.44-10.6,3.35-1.68,5.76-.56,7.25,2.97l25.1,53c1.3,2.79.19,5.21-3.35,6.88-23.62,14.69-50.21,22.13-80.14,22.13h0Z" fill="#d7fe63"/><path d="M1298.33,125.37h84.98c2.98,0,4.65,2.61,3.72,5.39l-87.22,251.97c-.93,3.53-3.35,5.39-6.88,5.39h-83.68c-3.53,0-5.95-1.86-6.88-5.39l-87.21-251.97c-.93-2.42.74-5.58,3.91-5.39h84.79c3.91,0,6.32,1.86,7.25,5.39l39.98,156.39,39.98-156.39c.93-3.53,3.34-5.39,7.25-5.39h0Z" fill="#d7fe63"/><path d="M774.72,532.96h-35.53c-1.78,0-3.08-.89-3.8-2.67l-17.24-36.1h-1.94v36.42c0,.97-1.3,2.35-2.67,2.35h-29.22c-1.3,0-2.43-1.13-2.43-2.35v-109.51c0-1.3,1.13-2.59,2.43-2.51h43.79c25.66,0,42.41,14.89,42.41,37.48,0,13.19-8.09,26.39-20.32,31.65l26.3,42.57c.89,1.38-.24,2.67-1.78,2.67h0ZM716.2,448.46v17.56h9.71c5.75,0,9.47-3.56,9.47-8.82s-3.72-8.82-9.47-8.74h-9.71Z" fill="#d7fe63"/><path d="M816.96,489.01v14.08h45.24c1.7,0,2.51.73,2.43,2.19v25.33c0,1.05-1.13,2.35-2.43,2.35h-77.13c-1.38,0-2.19-.81-2.59-2.51v-109.51c0-1.54.73-2.35,2.27-2.35h75.43c1.54,0,2.67,1.13,2.67,2.35v25.01c0,1.7-.89,2.51-2.67,2.51h-43.22v13.03h35.13c1.29,0,2.35,1.13,2.1,2.19l-2.27,23.23c-.24,1.46-1.13,2.19-2.83,2.11h-32.13,0Z" fill="#d7fe63"/><path d="M928.24,535.47c-34.24,0-56.98-23.96-56.98-59.73s22.74-59.65,56.98-59.65c12.95,0,24.6,3.24,34.88,9.63,1.54.73,2.02,1.78,1.46,3l-10.93,22.99c-.65,1.54-1.7,2.02-3.16,1.38-5.42-3.08-11.82-4.61-19.26-4.61-14.97,0-24.85,10.93-24.85,27.27s9.87,27.36,24.77,27.36c7.45,0,13.92-1.54,19.35-4.61,1.46-.73,2.51-.24,3.16,1.29l10.93,23.07c.57,1.21.08,2.27-1.46,3-10.28,6.39-21.85,9.63-34.88,9.63h0Z" fill="#d7fe63"/><path d="M1084.77,475.66c0,35.94-23.31,59.49-58.76,59.65-35.61.16-58.92-23.88-58.92-59.73s23.23-59.65,58.92-59.65,58.76,23.88,58.76,59.73ZM1048.67,475.74c0-15.05-8.66-26.3-22.74-26.3s-22.66,10.6-22.66,26.3,9.15,26.39,22.66,26.39,22.74-10.68,22.74-26.39h0Z" fill="#d7fe63"/><path d="M1188.04,532.96h-35.53c-1.78,0-3.08-.89-3.8-2.67l-17.24-36.1h-1.94v36.42c0,.97-1.3,2.35-2.67,2.35h-29.22c-1.3,0-2.43-1.13-2.43-2.35v-109.51c0-1.3,1.13-2.59,2.43-2.51h43.79c25.66,0,42.41,14.89,42.41,37.48,0,13.19-8.09,26.39-20.32,31.65l26.3,42.57c.89,1.38-.24,2.67-1.78,2.67h0ZM1129.51,448.46v17.56h9.71c5.75,0,9.47-3.56,9.47-8.82s-3.72-8.82-9.47-8.74h-9.71Z" fill="#d7fe63"/><path d="M1198.39,418.6h38.53c35.21-.08,58.44,22.74,58.44,57.06s-23.23,57.3-58.44,57.3h-38.53c-1.05,0-2.27-1.13-2.27-2.51v-109.35c0-1.29,1.21-2.59,2.27-2.51ZM1230.28,448.46v54.63h8.58c12.87,0,21.45-10.93,21.37-27.36,0-16.51-8.42-27.28-21.37-27.28h-8.58Z" fill="#d7fe63"/><path d="M1301.98,453.08c0-22.1,16.67-36.99,41.93-36.99,11.74,0,26.79,4.85,37.15,11.98,1.54.97,2.02,1.94,1.3,2.91l-10.44,23.39c-.57,1.78-1.54,2.27-2.99,1.38-9.06-5.18-16.83-8.09-23.31-8.66-5.1.08-8.5,2.51-8.5,5.75,0,2.83,4.05,5.67,12.14,8.34,8.09,2.67,15.62,6.56,22.58,11.65,7.04,5.1,12.22,14.41,12.22,25.82.08,22.1-17.16,36.83-42.65,36.83-13.92,0-28.65-4.37-36.75-10.93-1.46-1.13-1.94-2.1-1.38-2.99l10.44-23.39c.57-1.78,1.54-2.19,2.99-1.29,8.42,4.77,16.11,7.37,23.07,7.93,5.26,0,8.74-2.75,8.74-5.99-.08-2.83-4.13-5.67-12.22-8.5-8.09-2.75-15.54-6.64-22.26-11.57-6.8-5.1-12.06-14.41-12.06-25.66h0Z" fill="#d7fe63"/><g clip-path="url(#clippath)"><path d="M561.48,184.14c-13.53,3.29-5.61-14.38-14.46-20.15-19.84-12.93-75.07,12.91-92.35,26.38-42.81,33.36-4.34,40.85,17.25,69.52,19.74,26.21,26.07,44.44,7.26,74.03-11.91,18.73-31.26,26.31-42.69,44.23,6.65,28.67,24.78,51.47,25.56,82.41,2.19,85.91-57.85,135.15-119.18,181.46-15.13,11.42-57.98,34.89-66.93,44.17-13.39,13.9-26.84,109.53-13.88,124.77,10.72,12.6,27,3.88,39.41,3.92,36.05.12,96.29-9.3,101.3,39.85l-63.43-11.86c5.97,9.68,20.73,6.69,29.56,16.01,4.61,4.87,13.56,26.8,10.06,31.56-8.09-4.01-14.34-11.32-22.81-14.84-27.67-11.52-126.54-25.14-157.71-25.19-20.5-.03-33.28,10.55-29.75,32.11-22.1,2.33-30.36-30.04-20.09-45.94,17.51-27.11,99.58,2.31,72.56-68.05-2.04-5.32-18.65-32.42-22.67-32.43-93.69,62.8-199.39,109.22-311.51,126.52l55.53-45.61c.63-2.96-4.04-2.66-5.86-1.91-19.3,7.87-38,20.13-59.52,27.8-36.95,13.16-75.24,21.88-113.12,31.67-1.76-8.22,3.96-9.24,9.1-12.69,28.56-19.13,64.08-31.02,86.07-60.74.62-2.99-3.83-2.55-5.85-1.91-28.57,9.06-62.33,31-92.26,42.67-26.77,10.44-55.74,21.23-84.39,24.69,42.77-39.46,85.65-75.12,122.84-121.15C-92.67,612.01-49.66,413.64,129.19,352.95c21.32-7.23,87.86-16.59,98.84-24.17,4.14-2.86,5.05-4.6,4.15-9.68-1.45-1.95-27.41-2.36-23.78-15.9,13.49.36,29.29.4,39.58-9.93l-15.76-25.8c28.98,11.64,52.18,24.63,39.68-19.84l25.81,23.77c10.67,4.63,5.22-19.72,13.79-19.78l8.03,31.71,15.78-11.89.06,27.75,19.8-7.89-3.94,15.82,25.91-7.83c11.4-18.68-39.79-49.28-51.75-63.52-16.04-19.11-22.85-33.87-15.95-59.7,16.18-60.6,106.87-52.04,154.82-55.46,34.29-2.45,78.75-22.88,99.45,19.66,9.51,19.55,4.89,24.89-2.25,43.86Z" fill="#14161d"/></g><g clip-path="url(#clippath-1)"><path d="M2106.5,195.34c-13.53,3.29-5.61-14.38-14.46-20.15-19.84-12.93-75.07,12.91-92.35,26.38-42.81,33.36-4.34,40.85,17.25,69.52,19.74,26.21,26.07,44.44,7.26,74.03-11.91,18.73-31.26,26.31-42.69,44.23,6.65,28.67,24.78,51.47,25.56,82.41,2.19,85.91-57.85,135.15-119.18,181.46-15.13,11.42-57.98,34.89-66.93,44.17-13.39,13.9-26.84,109.53-13.88,124.77,10.72,12.6,27,3.88,39.41,3.92,36.05.12,96.29-9.3,101.3,39.85l-63.43-11.86c5.97,9.68,20.73,6.69,29.56,16.01,4.61,4.87,13.56,26.8,10.06,31.56-8.09-4.01-14.34-11.32-22.81-14.84-27.67-11.52-126.54-25.14-157.71-25.19-20.5-.03-33.28,10.55-29.75,32.11-22.1,2.33-30.36-30.04-20.09-45.94,17.51-27.11,99.58,2.31,72.56-68.05-2.04-5.32-18.65-32.42-22.67-32.43-93.69,62.8-199.39,109.22-311.51,126.52l55.53-45.61c.63-2.96-4.04-2.66-5.86-1.91-19.3,7.87-38,20.13-59.52,27.8-36.95,13.16-75.24,21.88-113.12,31.67-1.76-8.22,3.96-9.24,9.1-12.69,28.56-19.13,64.08-31.02,86.07-60.74.62-2.99-3.83-2.55-5.85-1.91-28.57,9.06-62.33,31-92.26,42.67-26.77,10.44-55.74,21.23-84.39,24.69,42.77-39.46,85.65-75.12,122.84-121.15,107.81-133.44,150.81-331.81,329.67-392.5,21.32-7.23,87.86-16.59,98.84-24.17,4.14-2.86,5.05-4.6,4.15-9.68-1.45-1.95-27.41-2.36-23.78-15.9,13.49.36,29.29.4,39.58-9.93l-15.76-25.8c28.98,11.64,52.18,24.63,39.68-19.84l25.81,23.77c10.67,4.63,5.22-19.72,13.79-19.78l8.03,31.71,15.78-11.89.06,27.75,19.8-7.89-3.94,15.82,25.91-7.83c11.4-18.68-39.79-49.28-51.75-63.52-16.04-19.11-22.85-33.87-15.95-59.7,16.18-60.6,106.87-52.04,154.82-55.46,34.29-2.45,78.75-22.88,99.45,19.66,9.51,19.55,4.89,24.89-2.25,43.86Z" fill="#14161d"/></g></svg>