<?xml version="1.0" encoding="UTF-8"?><svg id="Layer_2" xmlns="http://www.w3.org/2000/svg" width="9.66in" height="9.68in" xmlns:xlink="http://www.w3.org/1999/xlink" viewBox="0 0 695.26 696.7"><defs><clipPath id="clippath"><rect x="65.45" y="-668.53" width="571.51" height="563.64" fill="none"/></clipPath><clipPath id="clippath-1"><rect x="65.45" y="66.55" width="571.51" height="563.64" fill="none"/></clipPath></defs><g clip-path="url(#clippath)"><path d="M561.48-535.83c-13.53,3.29-5.61-14.38-14.46-20.15-19.84-12.93-75.07,12.91-92.35,26.38-42.81,33.36-4.34,40.85,17.25,69.52,19.74,26.21,26.07,44.44,7.26,74.03-11.91,18.73-31.26,26.31-42.69,44.23,6.65,28.67,24.78,51.47,25.56,82.41,2.19,85.91-57.85,135.15-119.18,181.46-15.13,11.42-57.98,34.89-66.93,44.17-13.39,13.9-26.84,109.53-13.88,124.77,10.72,12.6,27,3.88,39.41,3.92,36.05.12,96.29-9.3,101.3,39.85l-63.43-11.86c5.97,9.68,20.73,6.69,29.56,16.01,4.61,4.87,13.56,26.8,10.06,31.56-8.09-4.01-14.34-11.32-22.81-14.84-27.67-11.52-126.54-25.14-157.71-25.19-20.5-.03-33.28,10.55-29.75,32.11-22.1,2.33-30.36-30.04-20.09-45.94,17.51-27.11,99.58,2.31,72.56-68.05-2.04-5.32-18.65-32.42-22.67-32.43C104.8,78.95-.89,125.36-113.01,142.67l55.53-45.61c.63-2.96-4.04-2.66-5.86-1.91-19.3,7.87-38,20.13-59.52,27.8-36.95,13.16-75.24,21.88-113.12,31.67-1.76-8.22,3.96-9.24,9.1-12.69,28.56-19.13,64.08-31.02,86.07-60.74.62-2.99-3.83-2.55-5.85-1.91-28.57,9.06-62.33,31-92.26,42.67-26.77,10.44-55.74,21.23-84.39,24.69,42.77-39.46,85.65-75.12,122.84-121.15C-92.67-107.95-49.66-306.33,129.19-367.01c21.32-7.23,87.86-16.59,98.84-24.17,4.14-2.86,5.05-4.6,4.15-9.68-1.45-1.95-27.41-2.36-23.78-15.9,13.49.36,29.29.4,39.58-9.93l-15.76-25.8c28.98,11.64,52.18,24.63,39.68-19.84l25.81,23.77c10.67,4.63,5.22-19.72,13.79-19.78l8.03,31.71,15.78-11.89.06,27.75,19.8-7.89-3.94,15.82,25.91-7.83c11.4-18.68-39.79-49.28-51.75-63.52-16.04-19.11-22.85-33.87-15.95-59.7,16.18-60.6,106.87-52.04,154.82-55.46,34.29-2.45,78.75-22.88,99.45,19.66,9.51,19.55,4.89,24.89-2.25,43.86Z" fill="#14161d"/></g><rect width="695.26" height="696.7" fill="#d7fe63"/><path d="M654.11,655.09H41.16V41.66h612.95v613.43ZM67.16,629.09h560.95V67.66H67.16v561.43Z" fill="#14161d"/><g clip-path="url(#clippath-1)"><path d="M561.48,199.25c-13.53,3.29-5.61-14.38-14.46-20.15-19.84-12.93-75.07,12.91-92.35,26.38-42.81,33.36-4.34,40.85,17.25,69.52,19.74,26.21,26.07,44.44,7.26,74.03-11.91,18.73-31.26,26.31-42.69,44.23,6.65,28.67,24.78,51.47,25.56,82.41,2.19,85.91-57.85,135.15-119.18,181.46-15.13,11.42-57.98,34.89-66.93,44.17-13.39,13.9-26.84,109.53-13.88,124.77,10.72,12.6,27,3.88,39.41,3.92,36.05.12,96.29-9.3,101.3,39.85l-63.43-11.86c5.97,9.68,20.73,6.69,29.56,16.01,4.61,4.87,13.56,26.8,10.06,31.56-8.09-4.01-14.34-11.32-22.81-14.84-27.67-11.52-126.54-25.14-157.71-25.19-20.5-.03-33.28,10.55-29.75,32.11-22.1,2.33-30.36-30.04-20.09-45.94,17.51-27.11,99.58,2.31,72.56-68.05-2.04-5.32-18.65-32.42-22.67-32.43-93.69,62.8-199.39,109.22-311.51,126.52l55.53-45.61c.63-2.96-4.04-2.66-5.86-1.91-19.3,7.87-38,20.13-59.52,27.8-36.95,13.16-75.24,21.88-113.12,31.67-1.76-8.22,3.96-9.24,9.1-12.69,28.56-19.13,64.08-31.02,86.07-60.74.62-2.99-3.83-2.55-5.85-1.91-28.57,9.06-62.33,31-92.26,42.67-26.77,10.44-55.74,21.23-84.39,24.69,42.77-39.46,85.65-75.12,122.84-121.15C-92.67,627.13-49.66,428.75,129.19,368.07c21.32-7.23,87.86-16.59,98.84-24.17,4.14-2.86,5.05-4.6,4.15-9.68-1.45-1.95-27.41-2.36-23.78-15.9,13.49.36,29.29.4,39.58-9.93l-15.76-25.8c28.98,11.64,52.18,24.63,39.68-19.84l25.81,23.77c10.67,4.63,5.22-19.72,13.79-19.78l8.03,31.71,15.78-11.89.06,27.75,19.8-7.89-3.94,15.82,25.91-7.83c11.4-18.68-39.79-49.28-51.75-63.52-16.04-19.11-22.85-33.87-15.95-59.7,16.18-60.6,106.87-52.04,154.82-55.46,34.29-2.45,78.75-22.88,99.45,19.66,9.51,19.55,4.89,24.89-2.25,43.86Z" fill="#14161d"/></g></svg>