<?xml version="1.0" encoding="UTF-8"?><svg id="Layer_2" xmlns="http://www.w3.org/2000/svg" width="9.66in" height="15.31in" xmlns:xlink="http://www.w3.org/1999/xlink" viewBox="0 0 695.26 1102.12"><defs><clipPath id="clippath"><rect x="65.45" y="66.55" width="571.51" height="563.64" fill="none"/></clipPath></defs><rect x="0" width="695.26" height="1102.12" fill="#d7fe63"/><path d="M654.11,1061.62H41.16V41.66h612.95v1019.96ZM67.16,1035.62h560.95V67.66H67.16v967.96Z" fill="#14161d"/><g clip-path="url(#clippath)"><path d="M561.48,199.25c-13.53,3.29-5.61-14.38-14.46-20.15-19.84-12.93-75.07,12.91-92.35,26.38-42.81,33.36-4.34,40.85,17.25,69.52,19.74,26.21,26.07,44.44,7.26,74.03-11.91,18.73-31.26,26.31-42.69,44.23,6.65,28.67,24.78,51.47,25.56,82.41,2.19,85.91-57.85,135.15-119.18,181.46-15.13,11.42-57.98,34.89-66.93,44.17-13.39,13.9-26.84,109.53-13.88,124.77,10.72,12.6,27,3.88,39.41,3.92,36.05.12,96.29-9.3,101.3,39.85l-63.43-11.86c5.97,9.68,20.73,6.69,29.56,16.01,4.61,4.87,13.56,26.8,10.06,31.56-8.09-4.01-14.34-11.32-22.81-14.84-27.67-11.52-126.54-25.14-157.71-25.19-20.5-.03-33.28,10.55-29.75,32.11-22.1,2.33-30.36-30.04-20.09-45.94,17.51-27.11,99.58,2.31,72.56-68.05-2.04-5.32-18.65-32.42-22.67-32.43-93.69,62.8-199.39,109.22-311.51,126.52l55.53-45.61c.63-2.96-4.04-2.66-5.86-1.91-19.3,7.87-38,20.13-59.52,27.8-36.95,13.16-75.24,21.88-113.12,31.67-1.76-8.22,3.96-9.24,9.1-12.69,28.56-19.13,64.08-31.02,86.07-60.74.62-2.99-3.83-2.55-5.85-1.91-28.57,9.06-62.33,31-92.26,42.67-26.77,10.44-55.74,21.23-84.39,24.69,42.77-39.46,85.65-75.12,122.84-121.15C-92.67,627.13-49.66,428.75,129.19,368.07c21.32-7.23,87.86-16.59,98.84-24.17,4.14-2.86,5.05-4.6,4.15-9.68-1.45-1.95-27.41-2.36-23.78-15.9,13.49.36,29.29.4,39.58-9.93l-15.76-25.8c28.98,11.64,52.18,24.63,39.68-19.84l25.81,23.77c10.67,4.63,5.22-19.72,13.79-19.78l8.03,31.71,15.78-11.89.06,27.75,19.8-7.89-3.94,15.82,25.91-7.83c11.4-18.68-39.79-49.28-51.75-63.52-16.04-19.11-22.85-33.87-15.95-59.7,16.18-60.6,106.87-52.04,154.82-55.46,34.29-2.45,78.75-22.88,99.45,19.66,9.51,19.55,4.89,24.89-2.25,43.86Z" fill="#14161d"/></g><rect x="65.57" y="629.51" width="564.13" height="26" fill="#15171e"/><rect x="154.3" y="562.54" width="386.19" height="564.61" transform="translate(1192.24 497.45) rotate(90)" fill="#12151c"/><path d="M94.72,700.37h64.64c47.41,0,76.65,25.64,76.65,65.04s-29.25,65.17-76.65,65.17h-11.22v54.62c0,1.6-1.74,3.87-4.41,3.87h-49.01c-1.74,0-3.74-1.87-3.74-3.87v-180.69c0-2.14,2-4.27,3.74-4.14h0ZM147.61,749.25v32.32h14.16c9.48,0,16.16-6.68,16.16-16.16s-6.68-16.16-16.16-16.16h-14.16Z" fill="#d7fe63"/><path d="M336.97,893.21c-56.49,0-94.02-39.53-94.02-98.56s37.53-98.42,94.02-98.42c21.37,0,40.6,5.34,57.56,15.89,2.54,1.2,3.34,2.94,2.4,4.94l-18.03,37.93c-1.07,2.54-2.8,3.34-5.21,2.27-8.95-5.07-19.5-7.61-31.79-7.61-24.71,0-41,18.03-41,45s16.29,45.14,40.86,45.14c12.29,0,22.97-2.54,31.92-7.61,2.4-1.21,4.14-.4,5.21,2.13l18.03,38.06c.93,2,.13,3.74-2.4,4.94-16.96,10.55-36.06,15.89-57.56,15.89h0Z" fill="#d7fe63"/><path d="M534.35,700.37h61.03c2.14,0,3.34,1.87,2.67,3.87l-62.63,180.95c-.67,2.54-2.4,3.87-4.94,3.87h-60.09c-2.54,0-4.27-1.33-4.94-3.87l-62.63-180.95c-.67-1.73.53-4,2.81-3.87h60.89c2.81,0,4.54,1.34,5.21,3.87l28.71,112.31,28.71-112.31c.67-2.54,2.4-3.87,5.21-3.87h0Z" fill="#d7fe63"/><path d="M158.31,993.09h-25.52c-1.28,0-2.21-.64-2.73-1.92l-12.38-25.92h-1.4v26.16c0,.7-.93,1.69-1.92,1.69h-20.98c-.93,0-1.74-.81-1.74-1.69v-78.65c0-.93.81-1.86,1.74-1.8h31.45c18.43,0,30.46,10.7,30.46,26.91,0,9.48-5.81,18.95-14.59,22.73l18.89,30.57c.64.99-.17,1.92-1.28,1.92h0ZM116.28,932.41v12.61h6.97c4.13,0,6.8-2.56,6.8-6.34s-2.67-6.34-6.8-6.28h-6.97Z" fill="#d7fe63"/><path d="M188.64,961.53v10.11h32.49c1.22,0,1.8.52,1.74,1.57v18.19c0,.76-.81,1.69-1.74,1.69h-55.39c-.99,0-1.57-.58-1.86-1.8v-78.65c0-1.1.52-1.69,1.63-1.69h54.17c1.1,0,1.92.81,1.92,1.69v17.96c0,1.22-.64,1.8-1.92,1.8h-31.04v9.36h25.23c.93,0,1.69.81,1.51,1.57l-1.63,16.68c-.17,1.05-.81,1.57-2.04,1.51h-23.08,0Z" fill="#d7fe63"/><path d="M268.56,994.89c-24.59,0-40.92-17.21-40.92-42.9s16.33-42.84,40.92-42.84c9.3,0,17.67,2.33,25.05,6.92,1.1.52,1.45,1.28,1.05,2.15l-7.85,16.51c-.46,1.1-1.22,1.45-2.27.99-3.89-2.21-8.49-3.31-13.83-3.31-10.75,0-17.84,7.85-17.84,19.59s7.09,19.65,17.79,19.65c5.35,0,10-1.1,13.89-3.31,1.05-.52,1.8-.18,2.27.93l7.85,16.57c.41.87.06,1.63-1.05,2.15-7.38,4.59-15.69,6.92-25.05,6.92h0Z" fill="#d7fe63"/><path d="M380.97,951.94c0,25.81-16.74,42.72-42.2,42.84-25.58.12-42.32-17.15-42.32-42.9s16.68-42.84,42.32-42.84,42.2,17.15,42.2,42.9ZM355.05,952c0-10.81-6.22-18.89-16.33-18.89s-16.28,7.61-16.28,18.89,6.57,18.95,16.28,18.95,16.33-7.67,16.33-18.95h0Z" fill="#d7fe63"/><path d="M455.14,993.09h-25.52c-1.28,0-2.21-.64-2.73-1.92l-12.38-25.92h-1.4v26.16c0,.7-.93,1.69-1.92,1.69h-20.98c-.93,0-1.74-.81-1.74-1.69v-78.65c0-.93.81-1.86,1.74-1.8h31.45c18.43,0,30.46,10.7,30.46,26.91,0,9.48-5.81,18.95-14.59,22.73l18.89,30.57c.64.99-.17,1.92-1.28,1.92h0ZM413.11,932.41v12.61h6.97c4.13,0,6.8-2.56,6.8-6.34s-2.67-6.34-6.8-6.28h-6.97Z" fill="#d7fe63"/><path d="M462.57,910.96h27.67c25.29-.06,41.97,16.33,41.97,40.98s-16.68,41.15-41.97,41.15h-27.67c-.76,0-1.63-.81-1.63-1.8v-78.53c0-.93.87-1.86,1.63-1.8ZM485.47,932.41v39.23h6.16c9.24,0,15.4-7.85,15.35-19.65,0-11.86-6.05-19.59-15.35-19.59h-6.16Z" fill="#d7fe63"/><path d="M536.97,935.72c0-15.87,11.97-26.56,30.11-26.56,8.43,0,19.24,3.49,26.68,8.6,1.1.7,1.45,1.39.93,2.09l-7.5,16.8c-.41,1.28-1.1,1.63-2.15.99-6.51-3.72-12.09-5.81-16.74-6.22-3.66.06-6.1,1.8-6.1,4.13,0,2.04,2.91,4.07,8.72,5.99,5.81,1.92,11.22,4.71,16.22,8.37,5.06,3.66,8.78,10.35,8.78,18.54.06,15.87-12.32,26.45-30.63,26.45-10,0-20.58-3.14-26.39-7.85-1.05-.81-1.39-1.51-.99-2.15l7.5-16.8c.41-1.28,1.1-1.57,2.15-.93,6.05,3.43,11.57,5.29,16.57,5.7,3.78,0,6.28-1.98,6.28-4.3-.06-2.04-2.96-4.07-8.78-6.1-5.81-1.98-11.16-4.77-15.98-8.31-4.88-3.66-8.66-10.35-8.66-18.43h0Z" fill="#d7fe63"/></svg>