<?xml version="1.0" encoding="UTF-8"?>
<svg id="Layer_1" xmlns="http://www.w3.org/2000/svg" version="1.1" viewBox="0 0 48 48">
  <!-- Generator: Adobe Illustrator 29.7.1, SVG Export Plug-In . SVG Version: 2.1.1 Build 8)  -->
  <defs>
    <style>
      .st0 {
        fill: #12151c;
      }
    </style>
  </defs>
  <path class="st0" d="M22.5,42.9c-.4,0-.9,0-1.3-.2.4,0,.9.1,1.3.2Z"/>
  <path class="st0" d="M24,5C13.5,5,5,13.5,5,24s7,17.4,16.2,18.8v-13.7h-4.7v-5h4.7v-3.3c0-5.5,2.7-7.9,7.3-7.9s3.3.2,3.9.2v4.4h-3.1c-1.9,0-2.6,1.8-2.6,3.9v2.7h5.7l-.8,5h-4.9v13.8c9.3-1.3,16.4-9.2,16.4-18.8S34.5,5,24,5Z"/>
  <path class="st0" d="M26.6,42.8c-.4,0-.7,0-1.1.1.4,0,.7,0,1.1-.1Z"/>
</svg>