<?xml version="1.0" encoding="UTF-8"?>
<svg id="Layer_1" xmlns="http://www.w3.org/2000/svg" version="1.1" viewBox="0 0 48 48">
  <!-- Generator: Adobe Illustrator 29.7.1, SVG Export Plug-In . SVG Version: 2.1.1 Build 8)  -->
  <defs>
    <style>
      .st0 {
        fill: none;
        stroke: #d7fe63;
        stroke-linecap: round;
        stroke-linejoin: round;
        stroke-width: 2px;
      }

      .st1 {
        fill: #12151c;
      }

      .st2 {
        fill: #d7fe63;
      }
    </style>
  </defs>
  <path class="st1" d="M42.5,13c-.4.3-1,.5-1.3.8,0,0-.1.2-.1.3v1.1l-.3,1.1-.3,1-.3,1.2-.7,2.4-.7,2.3-.5,1.8c0,.3,0,.5,0,.8,0,1-.3,2-.6,2.9-.2.6-.4,1.1-.7,1.6-.1.2-.2.4-.4.6-.4.7-.9,1.3-1.5,1.8-.4.4-.9.8-1.4,1.2h0c0,0-.2.1-.3.2-.3.2-.7.4-1,.6-.2.1-.5.2-.7.3,0,0-.1,0-.2,0-.6.3-1.3.5-2,.6,0,0,0,0-.1,0-.4,0-.8.1-1.2.2-.2,0-.4,0-.6,0h-.7s-3.6-.2-3.6-.2c0,0,0,0,0,0h-1.8c-.1,0-.3,0-.4-.1-.6,0-1.1,0-1.7-.2h0c-1-.2-2-.5-2.8-1-.5-.3-1-.5-1.4-.9-.2-.1-.4-.3-.5-.4-.5-.4-1-.9-1.4-1.3,0,0-.1-.1-.2-.2,0,0-.1-.1-.2-.2-.4-.5-.7-1-1-1.6-.3-.5-.5-1-.6-1.6,0-.2-.1-.4-.2-.6,0,0,0,0,0,0-.1-.4-.2-.9-.3-1.3,0-.3,0-.7,0-1,0-.1,0-.3,0-.4l2-3.1,2-3,.9-1.4.8-1.2.3-.4v-1.1c0-.2,0-.5,0-.7,0-.7-.2-1.4-.4-2.1-.2-.7-.6-1.4-.9-2-.4-.7-.8-1.4-1.2-2-.5-.9-.9-1.6-.8-2.1.8-.2,1.6-.3,2.4-.3h16.8c4.4,0,8.2,2.7,9.7,6.6.2.4.3.8.4,1.3h0Z"/>
  <path class="st1" d="M42.9,15.6v.3l-1.4.8-.9.5-1,.6-2,1.2-2,1.2-2,1.2-.8.5c0,.5-.1,1-.4,1.4-.3.6-.9,1.1-1.6,1.5-.7.4-1.6.8-2.5,1,0,0,0,0,0,0-3.7,1-8.8.5-11.3-1.3-.7-.5-1.2-1.1-1.4-1.9,0-.2,0-.5,0-.8v-7.5c0-.2,0-.3-.3-.5-.6-.5-1.9-.9-3.4-1.3-1.2-.3-2.4-.7-3.5-1-.8-.3-1.5-.5-2-.7.2-.4.4-.7.6-1.1,1.5-2.2,3.7-3.7,6.3-4.3.8-.2,1.6-.3,2.4-.3h11.3c5.6,1,10.8,3.3,15.2,6.6.2.4.3.8.4,1.3.2.7.3,1.4.3,2.2,0,.2,0,.3,0,.5Z"/>
  <path class="st1" d="M42.9,15.6v4.6l-.2.7-.8,2.4-.8,2.5-.4,1.3-.4,1.2-.4,1.2-.4,1.2-.2.6-.3.8c0,.8,0,1.5,0,2.1,0,0,0,.1,0,.2,0,.6-.1,1-.3,1.4,0,0,0,.1,0,.2-.3.8-.7,1.2-1.3,1.6-.1,0-.3.1-.5.2-.6.2-1.3.3-2.1.3-.6,0-1.4,0-2.2,0h-2c0,0-.2,0-.2,0h-2.3c0,0-2.3-.2-2.3-.2l-7.6-.3h-2c0,0-.3,0-.3,0-.8,0-1.5,0-2.1-.1-.9-.1-1.6-.4-2.1-.7-.7-.5-1.2-1.2-1.4-2.1,0-.2-.1-.5-.1-.7-.1-.6-.2-1.3-.2-2.1,0-.2,0-.3,0-.5,0,0,0,0,0,0v-.6c0-.3,0-.6,0-.9v-1.7c0,0,0-1.2,0-1.2v-1.4s0-.2,0-.2v-2.6c0,0,.1-2.6.1-2.6v-2.4c0,0,.1-2.4.1-2.4v-.6c0-.3-1.1-.5-2.3-.7-1-.1-2-.2-2.7-.4,0-.2.1-.5.2-.7.2-.8.5-1.5.8-2.2.2-.4.4-.7.6-1.1,2.3-1,4.6-1.8,7.1-2.3,2.2-.5,4.4-.7,6.7-.7,7.7,0,14.9,2.6,20.5,7,.5.4,1.1.9,1.6,1.3,0,.2,0,.3,0,.5Z"/>
  <path class="st1" d="M42.9,18.1v4.8l-.6,1.1-1.1,2.2-.6,1.1-.5,1-.2.5c0,.3,0,.6,0,.9,0,.5,0,.9,0,1.3,0,.5-.1.9-.2,1.3-.2.8-.4,1.5-.7,2.1,0,0,0,.1-.1.2-.1.2-.3.4-.4.5-.2.2-.4.4-.6.6-.4.3-.8.5-1.3.7-.6.2-1.3.4-2.1.5-.5,0-1.1,0-1.8,0h-.4s-2.2.1-2.2.1h-2.3c0,.1-2.4.3-2.4.3l-3.3.2-4,.2h-.6c-.5,0-1,0-1.5,0,0,0,0,0-.1,0-.7-.1-1.4-.3-2-.6-.7-.3-1.3-.7-1.9-1.2-.5-.5-.9-1-1.2-1.5,0-.1-.1-.3-.2-.4-.3-.6-.6-1.3-.8-2.1,0-.1,0-.3,0-.4,0-.2-.1-.5-.1-.8-.1-.7-.2-1.4-.2-2.1h0c0-.3,0-.6,0-.9l-.5-1.2v-.2c0,0-.1-.2-.1-.2l-.8-1.9v-.3c-.1,0-.9-1.8-.9-1.8l-.8-2h0l-.8-2-.3-.7v-1.7c0-.7,0-1.3.2-1.9,0-.2.1-.5.2-.7.9-.5,1.8-1,2.8-1.4,2.2-1,4.5-1.7,6.9-2.1,1.8-.3,3.7-.5,5.6-.5,7.7,0,14.6,2.8,20.1,7.3.2.2.4.3.6.5.5.4,1,.9,1.4,1.4Z"/>
  <path class="st1" d="M42.9,21.2v5.4l-.6,1.2-1.1,2.4h0c0,.5,0,.9,0,1.3-.1,1.2-.4,2-.9,2.4-.3.4-.8.6-1.3.7,0,0,0,0-.1,0-.2,0-.3,0-.5,0-.7,0-1.4,0-2.3,0,0,0-.2,0-.3,0-.6,0-1.3,0-2.1-.1-.4,0-.8,0-1.3,0h-1.1c0,0,0,0,0,0l-2.4.2-2.7.2h-.4s-3.2.3-3.2.3h-1.6c0,.1-1.6.2-1.6.2-.3,0-.6,0-.8,0,0,0,0,0,0,0-1.2,0-2.2,0-3.2-.3-.9-.1-1.6-.4-2.3-.7-.7-.3-1.2-.8-1.7-1.4-.4-.6-.7-1.3-.9-2.2h0c-.1-.7-.2-1.5-.2-2.5l-.2-.3-.9-1.7v-.2c-.1,0-.2-.1-.2-.1l-1-1.7-.5-.9-.6-1.1-1-1.9-.6-1v-3.9c.9-.6,1.9-1.1,2.9-1.6,1.2-.6,2.4-1.1,3.7-1.5,1.4-.5,2.9-.8,4.4-1.1,1.5-.3,3.1-.4,4.7-.4,7.1,0,13.7,2.5,18.7,6.8.2.2.5.4.7.6.9.8,1.7,1.6,2.5,2.5,0,0,.2.2.2.3Z"/>
  <path class="st1" d="M42.9,24.7v7.6c-.3-.1-.6-.3-1-.5-.2-.1-.5-.2-.8-.3-.4-.2-.8-.3-1.3-.5-.1,0-.2,0-.3-.1-.2,0-.4-.1-.6-.2-.6-.2-1.3-.4-2-.5-.3,0-.6-.1-.8-.1-.9-.2-1.9-.3-2.9-.3,0,0-.2,0-.3,0h-2.7s-3.7,0-3.7,0h-7.9c-2.5,0-4,.7-5,.9,0,0,0,0,0,0-1,.3-1.3,0-1.4-1.6,0-.5,0-1.1,0-1.8l-.6-.5-1-.8-.6-.5h-.1c0,0-1.7-1.4-1.7-1.4l-.3-.2-.5-.4-1-.8-1.2-.9v-3.6c.1,0,.2-.2.3-.2,1.5-1,3.1-1.9,4.9-2.7,1.5-.7,3.1-1.2,4.8-1.5.5,0,.9-.2,1.4-.3,1.4-.2,2.8-.4,4.3-.4,6.3,0,12.1,2.2,16.7,5.8.7.5,1.4,1.1,2,1.7.9.8,1.7,1.7,2.4,2.6.1.2.3.4.4.6.2.3.4.5.6.8Z"/>
  <path class="st1" d="M42.9,29v3.4c0,.7,0,1.4-.2,2-.2,1-.5,1.9-1,2.7-.2,0-.5,0-.8,0-.7-.1-1.4-.5-2.3-.9,0,0,0,0-.1,0-.3-.1-.5-.3-.8-.5-.6-.3-1.1-.6-1.7-1-.1,0-.3-.1-.4-.2-.7-.3-1.4-.7-2.1-.9h0c-.1,0-.3-.1-.5-.1-.6-.2-1.2-.3-1.8-.3l-1.2-.3-5.1-1.5h0l-3.1-.9h0l-1.4-.4c-3.9,0-6.4,1.7-7.5,1-.5-.2-.7-.8-.8-2,0-.3,0-.7,0-1.2l-1.2-.6h0s0,0,0,0l-.9-.4-1-.5h0s-.2-.1-.2-.1l-2.1-1-1.6-.8v-3.6c.2-.2.4-.3.6-.5.2-.2.4-.3.6-.5h0c1.2-.9,2.5-1.7,3.9-2.3,1.6-.8,3.4-1.4,5.2-1.8.3,0,.5-.1.8-.2,1.5-.3,3-.4,4.6-.4,5.5,0,10.6,1.8,14.7,4.8,1.2.9,2.3,1.9,3.3,2.9.8.9,1.6,1.8,2.3,2.8,0,0,.1.1.2.2.4.6.7,1.1,1.1,1.7.2.4.4.7.6,1.1Z"/>
  <path class="st1" d="M42.7,34.4c-.2,1-.5,1.9-1,2.7-.2.4-.4.8-.7,1.1-.1.2-.3.4-.5.6-.4-.1-.9-.4-1.6-.6h0c-.5-.2-1.1-.4-1.7-.6-.2,0-.4-.1-.5-.2-.7-.2-1.5-.4-2.3-.5-.6-.1-1.2-.2-1.8-.2h-.5c0-.1,0-.1,0-.1l-2.5-.7-1.6-.5-1.7-.5h0l-.6-.2-6.9-2-2-.6-1.5-.3-2.4-.6h-.3q0,0,0,0l-2.4-.6h0s-.4-.1-.4-.1h-.2c0,0-1.8-.5-1.8-.5h-.2c0,0-1.5-1.3-1.5-1.3l-1.1-.9v-4.3c.4-.4.8-.7,1.2-1.1.1-.1.3-.2.4-.3.1-.1.3-.2.4-.3,1-.7,2-1.4,3-1.9,1.4-.7,2.8-1.3,4.3-1.7.3,0,.6-.2.9-.2,1.7-.4,3.5-.7,5.4-.7,4.7,0,9.1,1.4,12.7,3.8,1.8,1.2,3.4,2.7,4.8,4.3.7.8,1.3,1.7,1.9,2.6,0,0,0,.1.1.2.3.6.7,1.1.9,1.7.3.5.5,1,.7,1.6.3.8.6,1.7.8,2.6Z"/>
  <path class="st1" d="M41.1,38.3c-.1.2-.3.4-.5.6-.5.6-1,1.1-1.5,1.6-.5.4-1,.8-1.6,1.1-.2,0-.4-.1-.6-.2-.7-.2-1.4-.6-2.1-1.1-1-.6-1.9-1.3-2.3-1.6-.1-.1-.2-.2-.2-.2l-1.8-.2h-.2s-2.3-.2-2.3-.2l-2.4-.2-3.5-.3-5.6-.5h0s-2-1-2-1l-2-1-1.6-.8-.3-.2-.4-.2-1.5-.7-2-1-.6-.3-.9-.3v-4.7c.5-.6,1-1.1,1.6-1.7.4-.3.7-.7,1.1-1,0,0,.1-.1.2-.1,0,0,0,0,.1-.1.6-.5,1.3-1,1.9-1.4.8-.5,1.6-.9,2.4-1.3.9-.4,1.9-.8,2.9-1,1.7-.5,3.5-.7,5.4-.7,4.3,0,8.2,1.3,11.5,3.5,2.1,1.4,3.9,3.2,5.3,5.3.5.7.9,1.4,1.3,2.1.1.3.3.5.4.8.1.3.2.5.4.8.2.5.4,1.1.6,1.7.3,1,.6,2.1.7,3.2,0,.4,0,.7.1,1.1Z"/>
  <path class="st1" d="M39.1,40.2c0,0,0,.2,0,.3-.5.4-1,.8-1.6,1.1-.2.1-.5.3-.7.4-.2.1-.5.2-.7.3-.4-.2-.8-.4-1.4-.6-.7-.3-1.5-.6-2.1-.7-.1,0-.3,0-.4,0l-1.7-.2h0l-2.1-.3-2.2-.3h-1c0-.1-7.9-1.2-7.9-1.2-.5,0-1.1,0-1.6-.1-.7,0-1.4-.2-2.1-.3-.7-.1-1.4-.3-2.1-.5-.7-.2-1.4-.4-2.1-.6-.8-.2-1.5-.5-2.1-.7-.5-.2-.9-.3-1.2-.4-.2-.5-.3-.9-.5-1.4-.2-.8-.3-1.7-.3-2.6v-1.8c.3-.6.7-1.1,1.1-1.6.7-1,1.6-1.9,2.5-2.7,0,0,0,0,.1,0h0c.3-.3.7-.6,1-.8,0,0,0,0,.1-.1.2-.1.3-.3.5-.4,1.5-1,3.2-1.8,4.9-2.3,1.7-.5,3.5-.8,5.3-.8,3.7,0,7.1,1.1,9.9,2.9,2.1,1.4,3.9,3.1,5.3,5.2.2.2.3.5.5.7.7,1.2,1.3,2.5,1.8,3.9,0,.2,0,.3.1.5,0,.3.2.6.2.9,0,0,0,.1,0,.2.1.7.3,1.4.3,2h0c0,.6,0,1.3,0,1.9Z"/>
  <path class="st1" d="M36.9,40.2c0,.4,0,.8,0,1.2,0,.2,0,.4,0,.6-.2.1-.5.2-.7.3-.5.2-1,.3-1.4.4-.3,0-.7.1-1,.2h0c-.3-.2-.7-.4-1.1-.7-.7-.5-1.4-1-2-1.5t0,0c-.6-.5-1.1-.8-1.1-.8h-1.1s-2.1.1-2.1.1h-1s-4,.2-4,.2h-3.4c-.2.1-.5.1-.8.1h0c-.4,0-1,0-1.5,0-.7,0-1.4-.1-2.2-.2-.7,0-1.5-.2-2.2-.3-.8,0-1.5-.2-2.1-.3-.5,0-.9-.1-1.3-.2-.3-.3-.6-.7-.8-1.1-.4-.6-.7-1.2-1-1.8-.2-.5-.3-.9-.5-1.4.3-.9.7-1.8,1.2-2.7.4-.7.8-1.4,1.3-2,.5-.6,1-1.2,1.5-1.7h0c.2-.2.3-.3.5-.5.3-.3.6-.5.9-.8h0s0,0,0,0c.3-.2.5-.4.8-.6,1.6-1.1,3.3-1.8,5.2-2.3,1.2-.3,2.6-.5,3.9-.5,2.7,0,5.2.6,7.4,1.8h0c1.9,1,3.6,2.3,4.9,3.9.7.9,1.4,1.8,1.9,2.8.4.7.7,1.4.9,2.1,0,0,0,.1,0,.2.2.5.3,1.1.5,1.6,0,.4.2.8.2,1.2,0,.1,0,.2,0,.4.1.7.2,1.5.2,2.2Z"/>
  <path class="st1" d="M34.8,40.2h0c0,.5,0,.9,0,1.4,0,.4,0,.7,0,1.1-.3,0-.7.1-1,.2h0c-.4,0-.8,0-1.2,0h-2.2c0-.1-2.1-.7-2.1-.7l-2.1-.6-4.9-1.5-2.1-.6s-.9.3-2.1.8h0c-.5.2-1,.3-1.5.5-.7.2-1.4.4-2.1.6-.7.2-1.5.3-2.1.3-.2,0-.4,0-.6,0-.6-.3-1.2-.7-1.7-1.1-.5-.4-.9-.8-1.3-1.2-.3-.3-.6-.7-.8-1.1,0-.5.2-.9.3-1.4.3-1.2.8-2.4,1.5-3.5.4-.6.8-1.2,1.2-1.8,0,0,0,0,0,0,0,0,0,0,0,0,.1-.2.3-.3.4-.5h0c.4-.5.9-.9,1.4-1.3.2-.1.3-.3.5-.4,0,0,0,0,.1,0,2.4-1.8,5.3-2.9,8.5-2.9s6.9,1.4,9.4,3.6c1.2,1.1,2.2,2.4,3,3.8,0,.1.1.2.2.3,0,.2.2.4.3.6.3.8.6,1.6.8,2.4,0,0,0,.2,0,.3,0,.4.2.8.2,1.2,0,.6.1,1.2.1,1.9Z"/>
  <path class="st1" d="M32.6,40.2c0,.2,0,.4,0,.7,0,.4,0,.8-.1,1.2,0,.3,0,.5-.1.8h-5.7l-1.1-.2-4.3-.7h-.6c0,0-1.4-.3-1.4-.3-.6,0-2,.3-3.4.5-.7.1-1.5.3-2.2.4,0,0-.2,0-.2,0h0c-.7-.2-1.4-.4-2.1-.7-.2,0-.4-.2-.6-.3-.6-.3-1.2-.7-1.7-1.1,0-.1,0-.2,0-.3,0-.3,0-.5,0-.8,0-.7.1-1.3.3-2,.2-1,.6-1.9,1-2.7,0-.2.2-.4.3-.5,0,0,0-.2.1-.2.2-.3.4-.6.6-.9.4-.6.9-1.1,1.5-1.6h0s0,0,.1-.1c0,0,0,0,.1-.1.2-.2.4-.4.6-.5,0,0,0,0,0,0,2-1.5,4.4-2.3,7.1-2.3s4,.5,5.7,1.4h0c1.4.8,2.7,1.9,3.7,3.2.4.5.7,1,1,1.6h0l.2.3c.3.6.6,1.3.8,1.9h0c0,0,0,.1,0,.2.1.5.2.9.3,1.4,0,0,0,.2,0,.3,0,.5.1,1,.1,1.5Z"/>
  <path class="st1" d="M30.5,40.1c0,.2,0,.3,0,.5h0c0,.8-.1,1.5-.3,2.2,0,0,0,0,0,.1h-4.9l-4-.9h-.5c0-.1,0,0,0,0l-4.5.9h-.2s-.3,0-.3,0c-.7,0-1.3,0-2-.2h-.3c0,0,0,0,0,0-.7-.2-1.4-.4-2.1-.7,0-.1,0-.2,0-.3,0-.5-.1-.9-.1-1.4s0-.4,0-.5c0-.6.1-1.1.2-1.7,0-.4.2-.8.3-1.2.1-.3.3-.6.4-.9.1-.3.3-.5.4-.8.1-.2.3-.5.5-.7.4-.6.9-1.1,1.5-1.6.3-.3.7-.5,1-.8,1.5-1,3.4-1.6,5.4-1.6s.8,0,1.1,0h0c1.1.1,2.2.4,3.1.9h0c1.5.7,2.8,1.9,3.8,3.3.2.2.3.5.5.7.1.2.2.4.3.6.1.3.3.7.4,1h0c.1.4.2.8.3,1.2h0c.1.6.2,1.2.2,1.8Z"/>
  <path class="st1" d="M28.3,40.3h0c0,.7,0,1.3-.2,1.9,0,.3-.1.5-.2.7h-4.7l-2.4-.7-2.4.7h-2.8c-.7,0-1.3,0-2-.2,0,0,0,0,0,0-.1-.5-.3-.9-.3-1.4,0-.3,0-.6,0-.9s0-.3,0-.4c0-.5,0-1,.2-1.4,0-.3.2-.6.3-.9,0-.1.1-.3.2-.4.2-.4.3-.7.6-1,.2-.3.5-.7.8-.9.3-.4.7-.7,1.1-1,.7-.5,1.6-.9,2.5-1.2.6-.2,1.2-.3,1.9-.3,2.1,0,4,.8,5.3,2.2,0,0,.1.1.2.2h0c.1.2.3.3.4.5.4.5.7,1,1,1.6.1.3.2.6.3.8,0,0,0,0,0,.1.1.5.2,1,.3,1.6,0,.2,0,.3,0,.5Z"/>
  <path class="st1" d="M26.2,40.3c0,.4,0,.8-.2,1.2-.1.4-.3.8-.5,1.2,0,0-.1.2-.1.2h-9.3s0,0,0,0c-.1-.2-.2-.4-.3-.6-.2-.5-.3-1-.4-1.6,0-.1,0-.3,0-.4s0-.1,0-.2c0-.5,0-.9.2-1.3.1-.4.2-.7.4-1.1,0,0,0,0,0,0,.1-.2.3-.4.4-.7.5-.7,1.2-1.3,2-1.6h0c.3-.1.5-.2.8-.3h0c.5-.1,1-.2,1.5-.2s1.2,0,1.8.3c.2,0,.4.1.6.2h0c.9.4,1.7,1.1,2.2,1.9.1.2.2.3.3.5,0,0,0,.2.1.2.2.5.4,1.1.4,1.8,0,0,0,.1,0,.2,0,0,0,.2,0,.3Z"/>
  <g>
    <path class="st0" d="M30.3,10.4h-12.6c-4.1,0-7.3,3.3-7.3,7.3v12.6c0,4.1,3.3,7.3,7.3,7.3h12.6c4.1,0,7.3-3.3,7.3-7.3v-12.6c0-4.1-3.3-7.3-7.3-7.3Z"/>
    <circle class="st2" cx="31.3" cy="15.6" r="1"/>
  </g>
  <circle class="st0" cx="24" cy="24" r="6.3"/>
</svg>